<svg width="43" height="42" viewBox="0 0 43 42" fill="none" xmlns="http://www.w3.org/2000/svg">
<path d="M21.3766 0C9.85265 0 0.510651 9.40201 0.510651 21C0.510651 32.598 9.85265 42 21.3766 42C32.9006 42 42.2426 32.598 42.2426 21C42.2426 9.40201 32.9006 0 21.3766 0ZM10.8596 8.87218L14.5733 10.0463C15.0649 10.2088 15.3924 10.6682 15.4495 11.1383L15.6583 13.1967L32.4744 15.086C33.1964 15.2268 33.7038 15.8829 33.6027 16.5574L32.5584 22.479C32.4255 23.0984 31.9158 23.523 31.3486 23.53H16.4097L16.1168 25.2091H30.3042C31.0461 25.2354 31.5895 25.8039 31.5982 26.4678C31.5674 27.2251 30.9609 27.7208 30.3042 27.729H14.614C13.8226 27.6631 13.2417 27.032 13.3634 26.2601L14.0307 22.5636L12.9864 12.2303L10.1082 11.3075C9.7743 11.1955 9.5237 10.9849 9.35677 10.6769C9.04093 10.0107 9.33594 9.27322 9.89932 8.95419C10.2209 8.78598 10.5349 8.76501 10.8596 8.87218ZM16.5142 28.4546C17.5945 28.4546 18.4704 29.336 18.4704 30.4233C18.4704 31.5106 17.5945 32.3921 16.5142 32.3921C15.4339 32.3921 14.558 31.5106 14.558 30.4233C14.558 29.336 15.4338 28.4546 16.5142 28.4546ZM27.9965 28.4546C29.0769 28.4546 29.9527 29.336 29.9527 30.4233C29.9527 31.5106 29.0769 32.3921 27.9965 32.3921C26.9162 32.3921 26.0404 31.5106 26.0404 30.4233C26.0404 29.336 26.9162 28.4546 27.9965 28.4546Z" fill="#F31CAA"/>
</svg>
