<svg id="Layer_1" height="512" viewBox="0 0 512 512" width="512" xmlns="http://www.w3.org/2000/svg" data-name="Layer 1"><g fill="#b0b5ca"><path d="m206.653 463.521h-12v-70.458a35.839 35.839 0 0 1 18.826-31.563 23.85 23.85 0 0 0 12.527-21.007l-.214-52.461 12-.049.214 52.485a35.849 35.849 0 0 1 -18.824 31.59 23.85 23.85 0 0 0 -12.529 21.007z"/><path d="m125.918 397.139h-12v-21.939a40.362 40.362 0 0 1 28.813-38.5 28.292 28.292 0 0 0 20.2-26.994v-21.35h12v21.344a40.361 40.361 0 0 1 -28.812 38.507 28.294 28.294 0 0 0 -20.2 26.995z"/><path d="m398.082 421.149h-12v-45.155a15.134 15.134 0 0 0 -11.852-14.705 27.2 27.2 0 0 1 -21.3-26.432v-46.5h12v46.5a15.135 15.135 0 0 0 11.852 14.7 27.2 27.2 0 0 1 21.3 26.432z"/><path d="m324.822 377.138h-12v-24.992a22.051 22.051 0 0 0 -13.606-20.409 34.02 34.02 0 0 1 -20.99-31.486v-11.895h12v11.895a22.051 22.051 0 0 0 13.605 20.409 34.019 34.019 0 0 1 20.991 31.486z"/></g><path d="m200.293 457.521a24.74 24.74 0 1 0 24.74 24.739 24.767 24.767 0 0 0 -24.74-24.739z" fill="#f58387"/><path d="m392.082 414.667a24.74 24.74 0 1 0 24.739 24.74 24.768 24.768 0 0 0 -24.739-24.74z" fill="#f58387"/><path d="m119.918 391.423a24.74 24.74 0 1 0 24.74 24.74 24.767 24.767 0 0 0 -24.74-24.74z" fill="#5fa8ed"/><path d="m318.822 370.986a24.74 24.74 0 1 0 24.739 24.74 24.768 24.768 0 0 0 -24.739-24.74z" fill="#5fa8ed"/><path d="m402.5 127.69a81.432 81.432 0 0 0 -104.67-74.81 114.013 114.013 0 0 0 -201.48 73.18c0 1.81.05 3.62.13 5.41a81.481 81.481 0 0 0 29.19 157.53h260.63a81.472 81.472 0 0 0 16.2-161.31z" fill="#53d8d8"/><path d="m74.25 207.455a81.46 81.46 0 0 1 52.23-75.985c-.08-1.79-.13-3.6-.13-5.41a114.026 114.026 0 0 1 98.95-113.069 113.955 113.955 0 0 0 -128.95 113.069c0 1.81.05 3.62.13 5.41a81.481 81.481 0 0 0 29.19 157.53h30a81.453 81.453 0 0 1 -81.42-81.545z" fill="#46a5a2"/><path d="m119.542 124.711c-.158 0-.318-.006-.479-.019a6 6 0 0 1 -5.509-6.453c.168-2.12.406-4.254.709-6.343a6 6 0 0 1 11.876 1.723c-.266 1.831-.475 3.7-.622 5.564a6 6 0 0 1 -5.975 5.528z" fill="#f4f8fc"/><path d="m124.872 100.363a6 6 0 0 1 -5.628-8.082 97.3 97.3 0 0 1 91.079-63.381 97.7 97.7 0 0 1 22.056 2.514 6 6 0 0 1 -2.711 11.689 85.607 85.607 0 0 0 -19.308-2.2 85.291 85.291 0 0 0 -79.86 55.539 6 6 0 0 1 -5.628 3.921z" fill="#f4f8fc"/></svg>