<svg width="42" height="42" viewBox="0 0 42 42" fill="none" xmlns="http://www.w3.org/2000/svg">
<path d="M21 0C9.40201 0 0 9.40201 0 21C0 32.598 9.40201 42 21 42C32.598 42 42 32.598 42 21C42 9.40201 32.598 0 21 0ZM10.4154 8.87218L14.153 10.0463C14.6477 10.2088 14.9773 10.6682 15.0348 11.1383L15.245 13.1967L32.1691 15.086C32.8958 15.2268 33.4064 15.8829 33.3047 16.5574L32.2537 22.479C32.1199 23.0984 31.6069 23.523 31.036 23.53H16.0012L15.7064 25.2091H29.985C30.7316 25.2354 31.2785 25.8039 31.2872 26.4678C31.2563 27.2251 30.6459 27.7208 29.985 27.729H14.194C13.3975 27.6631 12.8128 27.032 12.9353 26.2601L13.6069 22.5636L12.5559 12.2303L9.65916 11.3075C9.32316 11.1955 9.07095 10.9849 8.90295 10.6769C8.58508 10.0107 8.88199 9.27322 9.44899 8.95419C9.7726 8.78598 10.0886 8.76501 10.4154 8.87218ZM16.1063 28.4546C17.1936 28.4546 18.0751 29.336 18.0751 30.4233C18.0751 31.5106 17.1936 32.3921 16.1063 32.3921C15.0191 32.3921 14.1376 31.5106 14.1376 30.4233C14.1376 29.336 15.019 28.4546 16.1063 28.4546ZM27.6625 28.4546C28.7497 28.4546 29.6312 29.336 29.6312 30.4233C29.6312 31.5106 28.7497 32.3921 27.6625 32.3921C26.5752 32.3921 25.6937 31.5106 25.6937 30.4233C25.6937 29.336 26.5752 28.4546 27.6625 28.4546Z" fill="white"/>
</svg>
