<svg width="24" height="24" viewBox="0 0 24 24" fill="none" xmlns="http://www.w3.org/2000/svg">
<path d="M10.64 18.7699C10.7412 18.686 10.8249 18.5829 10.8863 18.4666C10.9476 18.3502 10.9854 18.2229 10.9975 18.0919C11.0096 17.9609 10.9957 17.8289 10.9567 17.7033C10.9176 17.5777 10.8542 17.461 10.77 17.3599L7.13998 12.9999H19C19.2652 12.9999 19.5195 12.8946 19.7071 12.7071C19.8946 12.5195 20 12.2652 20 11.9999C20 11.7347 19.8946 11.4804 19.7071 11.2928C19.5195 11.1053 19.2652 10.9999 19 10.9999L7.13998 10.9999L10.77 6.63995C10.854 6.53883 10.9173 6.42215 10.9563 6.29657C10.9952 6.17098 11.0091 6.03895 10.997 5.90802C10.9849 5.77709 10.9472 5.64982 10.8859 5.53348C10.8247 5.41713 10.7411 5.31399 10.64 5.22995C10.5389 5.1459 10.4222 5.0826 10.2966 5.04364C10.171 5.00469 10.039 4.99086 9.90805 5.00293C9.77712 5.015 9.64985 5.05274 9.53351 5.114C9.41716 5.17526 9.31402 5.25883 9.22998 5.35995L4.22998 11.3599L4.13998 11.5099L4.06998 11.6399C3.98058 11.8716 3.98058 12.1283 4.06998 12.3599L4.13998 12.4899L4.22998 12.6399L9.22998 18.6399C9.31393 18.7412 9.41703 18.8249 9.53337 18.8863C9.64972 18.9476 9.77703 18.9854 9.90801 18.9975C10.039 19.0096 10.1711 18.9957 10.2967 18.9566C10.4223 18.9176 10.5389 18.8542 10.64 18.7699Z" fill="#F31CAA"/>
</svg>
