<svg width="158" height="36" viewBox="0 0 158 36" fill="none" xmlns="http://www.w3.org/2000/svg">
<path d="M23.307 13.572L18.897 5.905H17.685L17.299 5.296H16.725L11.946 13.572H23.307Z" fill="#7600AA"/>
<path d="M9.861 13.572L7.453 17.781L4.815 19.303L2 24.178L3.927 27.457L11.946 13.572H9.861Z" fill="#5C0095"/>
<path d="M16.725 5.296H12.905L10.828 8.892L11.68 10.392L9.86102 13.572H11.946L16.725 5.296Z" fill="#5900AF"/>
<path d="M4.995 27.954L5.639 29.026H16.788L17.406 27.954H4.995Z" fill="#460063"/>
<path d="M24.507 15.659L23.307 13.572H11.946L3.927 27.457L4.219 27.954H17.406L24.507 15.659Z" fill="#8800B8"/>
<path d="M16.788 29.026H17.499L18.426 30.668H19.031L18.111 29.026H27.506L28.139 27.954H17.406L16.788 29.026Z" fill="#2F0031"/>
<path d="M24.507 15.659L17.406 27.954H28.139L29.882 25.005L24.507 15.659Z" fill="#470056"/>
<path d="M15.885 18.016L13.555 13.965L11.215 18.016H15.885ZM14.471 22.68L15.784 24.962H28.113L26.8 22.68H14.471ZM12.787 20.866L9.13298 27.194H16.426L12.787 20.866ZM16.838 22.19H26.518L21.688 13.792L16.838 22.19ZM13.876 13.41L17.551 19.8L21.355 13.213L17.68 6.823L13.876 13.41ZM8.50698 27.194L13.526 18.503H10.934L5.91498 27.194H8.50698Z" fill="url(#paint0_radial_301:575)"/>
<path d="M15.867 22.079H14.46C14.3583 22.079 14.2584 22.0525 14.17 22.0022C14.0816 21.9519 14.0079 21.8795 13.956 21.792L13.267 20.633C13.213 20.5424 13.1845 20.4389 13.1845 20.3335C13.1845 20.2281 13.213 20.1246 13.267 20.034L13.956 18.875C14.0079 18.7875 14.0816 18.7151 14.17 18.6648C14.2584 18.6145 14.3583 18.588 14.46 18.588H15.866C16.073 18.588 16.264 18.697 16.37 18.875L17.059 20.034C17.169 20.219 17.169 20.449 17.059 20.633L16.37 21.792C16.3185 21.8796 16.245 21.9522 16.1567 22.0025C16.0685 22.0529 15.9686 22.0792 15.867 22.079Z" fill="#43004D"/>
<path d="M53.032 17.272C53.464 16.52 54.104 15.896 54.952 15.4C55.816 14.888 56.816 14.632 57.952 14.632C59.12 14.632 60.176 14.912 61.12 15.472C62.08 16.032 62.832 16.824 63.376 17.848C63.92 18.856 64.192 20.032 64.192 21.376C64.192 22.704 63.92 23.888 63.376 24.928C62.832 25.968 62.08 26.776 61.12 27.352C60.176 27.928 59.12 28.216 57.952 28.216C56.832 28.216 55.84 27.968 54.976 27.472C54.128 26.96 53.48 26.328 53.032 25.576V34.24H50.848V14.848H53.032V17.272ZM61.96 21.376C61.96 20.384 61.76 19.52 61.36 18.784C60.96 18.048 60.416 17.488 59.728 17.104C59.056 16.72 58.312 16.528 57.496 16.528C56.696 16.528 55.952 16.728 55.264 17.128C54.592 17.512 54.048 18.08 53.632 18.832C53.232 19.568 53.032 20.424 53.032 21.4C53.032 22.392 53.232 23.264 53.632 24.016C54.048 24.752 54.592 25.32 55.264 25.72C55.952 26.104 56.696 26.296 57.496 26.296C58.312 26.296 59.056 26.104 59.728 25.72C60.416 25.32 60.96 24.752 61.36 24.016C61.76 23.264 61.96 22.384 61.96 21.376ZM68.1948 12.712C67.7788 12.712 67.4268 12.568 67.1388 12.28C66.8508 11.992 66.7068 11.64 66.7068 11.224C66.7068 10.808 66.8508 10.456 67.1388 10.168C67.4268 9.88 67.7788 9.736 68.1948 9.736C68.5948 9.736 68.9308 9.88 69.2028 10.168C69.4908 10.456 69.6348 10.808 69.6348 11.224C69.6348 11.64 69.4908 11.992 69.2028 12.28C68.9308 12.568 68.5948 12.712 68.1948 12.712ZM69.2508 14.848V28H67.0668V14.848H69.2508ZM72.157 21.4C72.157 20.04 72.429 18.856 72.973 17.848C73.517 16.824 74.269 16.032 75.229 15.472C76.205 14.912 77.317 14.632 78.565 14.632C80.181 14.632 81.509 15.024 82.549 15.808C83.605 16.592 84.301 17.68 84.637 19.072H82.285C82.061 18.272 81.621 17.64 80.965 17.176C80.325 16.712 79.525 16.48 78.565 16.48C77.317 16.48 76.309 16.912 75.541 17.776C74.773 18.624 74.389 19.832 74.389 21.4C74.389 22.984 74.773 24.208 75.541 25.072C76.309 25.936 77.317 26.368 78.565 26.368C79.525 26.368 80.325 26.144 80.965 25.696C81.605 25.248 82.045 24.608 82.285 23.776H84.637C84.285 25.12 83.581 26.2 82.525 27.016C81.469 27.816 80.149 28.216 78.565 28.216C77.317 28.216 76.205 27.936 75.229 27.376C74.269 26.816 73.517 26.024 72.973 25C72.429 23.976 72.157 22.776 72.157 21.4ZM94.8951 28L89.7351 22.192V28H87.5511V10.24H89.7351V20.68L94.7991 14.848H97.8471L91.6551 21.4L97.8711 28H94.8951ZM122.117 14.608C123.141 14.608 124.053 14.824 124.853 15.256C125.653 15.672 126.285 16.304 126.749 17.152C127.213 18 127.445 19.032 127.445 20.248V28H125.285V20.56C125.285 19.248 124.957 18.248 124.301 17.56C123.661 16.856 122.789 16.504 121.685 16.504C120.549 16.504 119.645 16.872 118.973 17.608C118.301 18.328 117.965 19.376 117.965 20.752V28H115.805V20.56C115.805 19.248 115.477 18.248 114.821 17.56C114.181 16.856 113.309 16.504 112.205 16.504C111.069 16.504 110.165 16.872 109.493 17.608C108.821 18.328 108.485 19.376 108.485 20.752V28H106.301V14.848H108.485V16.744C108.917 16.056 109.493 15.528 110.213 15.16C110.949 14.792 111.757 14.608 112.637 14.608C113.741 14.608 114.717 14.856 115.565 15.352C116.413 15.848 117.045 16.576 117.461 17.536C117.829 16.608 118.437 15.888 119.285 15.376C120.133 14.864 121.077 14.608 122.117 14.608ZM143.028 20.92C143.028 21.336 143.004 21.776 142.956 22.24H132.444C132.524 23.536 132.964 24.552 133.764 25.288C134.58 26.008 135.564 26.368 136.716 26.368C137.66 26.368 138.444 26.152 139.068 25.72C139.708 25.272 140.156 24.68 140.412 23.944H142.764C142.412 25.208 141.708 26.24 140.652 27.04C139.596 27.824 138.284 28.216 136.716 28.216C135.468 28.216 134.348 27.936 133.356 27.376C132.38 26.816 131.612 26.024 131.052 25C130.492 23.96 130.212 22.76 130.212 21.4C130.212 20.04 130.484 18.848 131.028 17.824C131.572 16.8 132.332 16.016 133.308 15.472C134.3 14.912 135.436 14.632 136.716 14.632C137.964 14.632 139.068 14.904 140.028 15.448C140.988 15.992 141.724 16.744 142.236 17.704C142.764 18.648 143.028 19.72 143.028 20.92ZM140.772 20.464C140.772 19.632 140.588 18.92 140.22 18.328C139.852 17.72 139.348 17.264 138.708 16.96C138.084 16.64 137.388 16.48 136.62 16.48C135.516 16.48 134.572 16.832 133.788 17.536C133.02 18.24 132.58 19.216 132.468 20.464H140.772Z" fill="white"/>
<defs>
<radialGradient id="paint0_radial_301:575" cx="0" cy="0" r="1" gradientUnits="userSpaceOnUse" gradientTransform="translate(15.015 20.156) scale(11.547)">
<stop offset="0.216" stop-color="#FFB3C0"/>
<stop offset="0.491" stop-color="#FD6EE4"/>
<stop offset="1" stop-color="#AC3DFF"/>
</radialGradient>
</defs>
</svg>
