<svg width="36" height="36" viewBox="0 0 36 36" fill="none" xmlns="http://www.w3.org/2000/svg">
<path d="M20.04 7.84502C19.8881 7.97094 19.7625 8.12559 19.6705 8.30011C19.5785 8.47463 19.5218 8.66559 19.5037 8.86206C19.4856 9.05852 19.5064 9.25663 19.5649 9.44504C19.6235 9.63344 19.7187 9.80844 19.845 9.96002L25.29 16.5H7.49997C7.10215 16.5 6.72062 16.6581 6.43931 16.9394C6.15801 17.2207 5.99997 17.6022 5.99997 18C5.99997 18.3978 6.15801 18.7794 6.43931 19.0607C6.72062 19.342 7.10215 19.5 7.49997 19.5H25.29L19.845 26.04C19.7189 26.1917 19.6239 26.3667 19.5655 26.5551C19.5071 26.7435 19.4863 26.9415 19.5044 27.1379C19.5225 27.3343 19.5792 27.5252 19.671 27.6997C19.7629 27.8742 19.8883 28.0289 20.04 28.155C20.1916 28.2811 20.3667 28.376 20.555 28.4345C20.7434 28.4929 20.9415 28.5137 21.1379 28.4955C21.3343 28.4774 21.5252 28.4208 21.6997 28.3289C21.8742 28.2371 22.0289 28.1117 22.155 27.96L29.655 18.96L29.79 18.735L29.895 18.54C30.0291 18.1925 30.0291 17.8075 29.895 17.46L29.79 17.265L29.655 17.04L22.155 8.04002C22.0291 7.88813 21.8744 7.76257 21.6999 7.67055C21.5254 7.57852 21.3344 7.52182 21.1379 7.50371C20.9415 7.4856 20.7434 7.50642 20.555 7.56499C20.3665 7.62355 20.1915 7.71871 20.04 7.84502Z" fill="#F31CAA"/>
</svg>
