<svg width="21" height="20" viewBox="0 0 21 20" fill="none" xmlns="http://www.w3.org/2000/svg">
<path d="M16 11V18H2V4H7.02C7.07 3.29 7.24 2.62 7.5 2H2C0.9 2 0 2.9 0 4V18C0 19.1 0.9 20 2 20H16C17.1 20 18 19.1 18 18V13L16 11ZM14.5 16H3.5L6.25 12.47L8.21 14.83L10.96 11.29L14.5 16ZM17.3 6.89C17.74 6.19 18 5.38 18 4.5C18 2.01 15.99 0 13.5 0C11.01 0 9 2.01 9 4.5C9 6.99 11.01 9 13.49 9C14.37 9 15.19 8.74 15.88 8.3L19 11.42L20.42 10L17.3 6.89ZM13.5 7C12.837 7 12.2011 6.73661 11.7322 6.26777C11.2634 5.79893 11 5.16304 11 4.5C11 3.83696 11.2634 3.20107 11.7322 2.73223C12.2011 2.26339 12.837 2 13.5 2C14.163 2 14.7989 2.26339 15.2678 2.73223C15.7366 3.20107 16 3.83696 16 4.5C16 5.16304 15.7366 5.79893 15.2678 6.26777C14.7989 6.73661 14.163 7 13.5 7Z" fill="#898989"/>
</svg>
