<svg width="16" height="16" viewBox="0 0 16 16" fill="none" xmlns="http://www.w3.org/2000/svg">
<path d="M9.36002 1.23005C9.25876 1.314 9.17506 1.4171 9.11371 1.53345C9.05236 1.6498 9.01456 1.7771 9.00249 1.90808C8.99041 2.03906 9.00429 2.17113 9.04334 2.29673C9.08238 2.42234 9.14582 2.539 9.23002 2.64005L12.86 7.00005L1.00002 7.00005C0.734806 7.00005 0.480452 7.10541 0.292915 7.29294C0.105379 7.48048 2.28882e-05 7.73484 2.28882e-05 8.00005C2.28882e-05 8.26527 0.105379 8.51962 0.292915 8.70716C0.480452 8.89469 0.734806 9.00005 1.00002 9.00005L12.86 9.00005L9.23002 13.3601C9.14598 13.4612 9.08267 13.5779 9.04372 13.7034C9.00477 13.829 8.99093 13.961 9.003 14.092C9.01507 14.2229 9.05282 14.3502 9.11407 14.4665C9.17533 14.5829 9.2589 14.686 9.36002 14.7701C9.46114 14.8541 9.57782 14.9174 9.70341 14.9564C9.82899 14.9953 9.96102 15.0091 10.0919 14.9971C10.2229 14.985 10.3501 14.9473 10.4665 14.886C10.5828 14.8247 10.686 14.7412 10.77 14.6401L15.77 8.64005L15.86 8.49005L15.93 8.36005C16.0194 8.12838 16.0194 7.87173 15.93 7.64005L15.86 7.51005L15.77 7.36005L10.77 1.36005C10.6861 1.25879 10.583 1.17509 10.4666 1.11374C10.3503 1.05239 10.223 1.01459 10.092 1.00251C9.96102 0.990439 9.82895 1.00432 9.70334 1.04337C9.57774 1.08241 9.46107 1.14585 9.36002 1.23005Z" fill="#F31CAA"/>
</svg>
